<?xml version="1.0" standalone="no"?>
<!DOCTYPE svg PUBLIC "-//W3C//DTD SVG 20010904//EN"
 "http://www.w3.org/TR/2001/REC-SVG-20010904/DTD/svg10.dtd">
<svg version="1.0" xmlns="http://www.w3.org/2000/svg"
 width="233.000000pt" height="233.000000pt" viewBox="0 0 233.000000 233.000000"
 preserveAspectRatio="xMidYMid meet">

<g transform="translate(0.000000,233.000000) scale(0.100000,-0.100000)"
fill="#000000" stroke="none">
<path d="M640 2105 c0 -128 1 -135 20 -135 19 0 20 7 20 121 l0 120 53 -3 52
-3 3 -117 c2 -110 4 -118 22 -118 19 0 20 7 20 135 l0 135 -95 0 -95 0 0 -135z"/>
<path d="M900 2105 c0 -52 -4 -69 -21 -86 -20 -20 -20 -49 1 -49 6 0 22 11 35
25 21 20 25 34 25 85 0 57 1 60 25 60 25 0 25 -1 25 -85 0 -78 2 -85 20 -85
19 0 20 7 20 100 l0 100 -65 0 -65 0 0 -65z"/>
<path d="M1095 2145 c-20 -19 -25 -34 -25 -73 0 -63 31 -97 92 -97 55 0 88 38
88 101 0 61 -32 94 -90 94 -30 0 -47 -6 -65 -25z m82 -13 c6 -4 17 -20 22 -36
24 -62 -40 -115 -74 -62 -32 49 9 126 52 98z"/>
<path d="M1280 2070 l0 -100 105 0 105 0 0 -25 c0 -18 5 -25 20 -25 17 0 20 7
20 45 0 25 -4 45 -10 45 -6 0 -10 33 -10 80 0 73 -2 80 -20 80 -18 0 -20 -7
-20 -80 l0 -80 -30 0 -30 0 0 80 c0 73 -2 80 -20 80 -18 0 -20 -7 -20 -80 0
-79 0 -80 -25 -80 -25 0 -25 1 -25 80 0 73 -2 80 -20 80 -19 0 -20 -7 -20
-100z"/>
<path d="M1571 2161 c-8 -5 -11 -16 -8 -25 5 -13 12 -14 32 -6 33 13 31 13 49
-6 25 -24 19 -34 -19 -34 -42 0 -75 -29 -75 -65 0 -35 35 -53 99 -51 l54 1 -2
80 c-3 96 -15 115 -75 115 -23 0 -47 -4 -55 -9z m89 -114 c0 -19 -21 -37 -42
-37 -18 0 -25 29 -11 43 12 12 53 7 53 -6z"/>
<path d="M1146 1795 c-3 -9 -6 -65 -6 -124 l0 -107 -47 -12 c-63 -17 -134 -88
-159 -159 -12 -34 -24 -53 -34 -53 -25 0 -40 -21 -40 -58 0 -44 16 -72 40 -72
16 0 20 -7 20 -35 l0 -34 -82 -3 c-66 -2 -83 -6 -83 -18 0 -12 17 -16 83 -18
l82 -3 0 -34 0 -35 -190 0 -190 0 0 35 0 34 83 3 c65 2 82 6 82 18 0 12 -18
15 -100 15 l-100 0 -3 -68 c-3 -62 -1 -69 17 -74 20 -5 21 -14 23 -237 l3
-231 620 0 620 0 3 231 c2 223 3 232 23 237 18 5 20 12 17 74 l-3 68 -207 3
-208 2 0 35 c0 28 4 35 20 35 24 0 40 28 40 72 0 37 -15 58 -40 58 -10 0 -22
19 -34 53 -25 71 -96 142 -159 159 -47 12 -47 12 -47 55 l0 43 69 0 c85 0 93
8 89 92 l-3 63 -96 3 c-81 2 -98 0 -103 -13z m164 -65 l0 -40 -60 0 -60 0 0
40 0 40 60 0 60 0 0 -40z m-107 -247 c10 -18 21 -57 24 -88 l6 -55 -67 0 -66
0 0 33 c0 69 38 151 68 145 9 -2 24 -17 35 -35z m-127 -14 c-7 -19 -17 -55
-20 -81 -7 -48 -7 -48 -47 -48 -33 0 -39 3 -39 20 0 33 26 75 71 114 24 20 44
34 46 32 2 -1 -3 -18 -11 -37z m227 -8 c34 -30 57 -72 57 -101 0 -17 -6 -20
-39 -20 -40 0 -40 0 -47 48 -3 26 -13 62 -20 81 -8 18 -14 36 -14 38 0 6 25
-12 63 -46z m117 -186 l0 -25 -255 0 -255 0 0 25 0 25 255 0 255 0 0 -25z
m-390 -155 l0 -90 -35 0 -35 0 0 90 0 90 35 0 35 0 0 -90z m110 0 l0 -90 -30
0 -30 0 0 90 0 90 30 0 30 0 0 -90z m110 0 l0 -90 -30 0 -30 0 0 90 0 90 30 0
30 0 0 -90z m120 0 l0 -90 -35 0 -35 0 0 90 0 90 35 0 35 0 0 -90z m420 -55
l0 -35 -190 0 -190 0 0 35 0 35 190 0 190 0 0 -35z m-1028 -112 c2 -28 9 -41
25 -48 21 -9 22 -15 25 -177 l3 -168 -117 0 -118 0 0 215 0 215 89 0 90 0 3
-37z m758 12 l0 -25 -162 -2 c-137 -3 -163 -5 -163 -18 0 -12 18 -16 93 -18
l92 -3 0 -169 0 -170 -45 0 -45 0 0 81 c0 94 -16 136 -61 163 -62 36 -144 13
-174 -50 -10 -20 -15 -61 -15 -113 l0 -81 -45 0 -45 0 0 170 0 170 96 0 c86 0
95 2 92 18 -3 15 -20 17 -166 20 l-162 2 0 25 0 25 355 0 355 0 0 -25z m230
-190 l0 -215 -117 0 -118 0 3 168 c3 162 4 168 25 177 16 7 23 20 25 48 l3 37
90 0 89 0 0 -215z m-840 -45 l0 -170 -25 0 -25 0 0 170 0 170 25 0 25 0 0
-170z m560 0 l0 -170 -25 0 -25 0 0 170 0 170 25 0 25 0 0 -170z m-249 24 c21
-22 24 -37 28 -110 l3 -84 -87 0 -87 0 3 84 c4 73 7 88 28 110 16 17 35 26 56
26 21 0 40 -9 56 -26z"/>
<path d="M632 838 c-16 -16 -16 -160 0 -176 7 -7 36 -12 65 -12 41 0 54 4 63
19 14 27 13 154 -2 169 -16 16 -110 16 -126 0z m88 -88 c0 -57 -1 -60 -25 -60
-24 0 -25 3 -25 60 0 57 1 60 25 60 24 0 25 -3 25 -60z"/>
<path d="M1572 838 c-15 -15 -16 -142 -2 -169 9 -15 22 -19 63 -19 29 0 58 5
65 12 7 7 12 42 12 88 0 46 -5 81 -12 88 -16 16 -110 16 -126 0z m88 -88 c0
-57 -1 -60 -25 -60 -24 0 -25 3 -25 60 0 57 1 60 25 60 24 0 25 -3 25 -60z"/>
<path d="M690 280 c0 -123 1 -130 20 -130 17 0 20 7 20 50 l0 50 40 0 c53 0
80 27 80 79 0 55 -34 81 -106 81 l-54 0 0 -130z m104 84 c31 -31 11 -81 -34
-86 -24 -3 -25 0 -28 50 -3 50 -2 52 22 52 13 0 32 -7 40 -16z"/>
<path d="M890 245 c0 -94 0 -95 24 -95 19 0 32 13 60 63 l35 62 1 -62 c0 -56
2 -63 20 -63 19 0 20 7 20 95 0 93 -1 95 -23 95 -18 0 -31 -14 -58 -61 l-34
-62 -3 62 c-3 53 -6 61 -22 61 -18 0 -20 -7 -20 -95z"/>
<path d="M1090 245 c0 -88 1 -95 20 -95 17 0 20 7 20 40 l0 40 40 0 40 0 0
-40 c0 -33 3 -40 20 -40 19 0 20 7 20 95 0 88 -1 95 -20 95 -17 0 -20 -7 -20
-40 l0 -40 -40 0 -40 0 0 40 c0 33 -3 40 -20 40 -19 0 -20 -7 -20 -95z"/>
<path d="M1334 328 c-46 -22 -59 -107 -23 -152 16 -21 29 -26 64 -26 59 0 86
24 92 82 5 42 3 50 -25 78 -32 32 -68 38 -108 18z m74 -31 c36 -43 15 -117
-33 -117 -42 0 -60 64 -29 108 17 24 46 29 62 9z"/>
<path d="M1510 245 c0 -88 1 -95 20 -95 17 0 20 7 20 41 0 41 0 41 23 27 12
-8 28 -27 35 -42 13 -26 52 -37 52 -13 0 18 -38 77 -50 77 -18 0 -11 18 20 53
36 42 37 47 6 47 -16 0 -32 -13 -52 -42 l-29 -42 -3 42 c-3 34 -7 42 -23 42
-17 0 -19 -8 -19 -95z"/>
</g>
</svg>
