<?xml version="1.0" standalone="no"?>
<!DOCTYPE svg PUBLIC "-//W3C//DTD SVG 20010904//EN"
 "http://www.w3.org/TR/2001/REC-SVG-20010904/DTD/svg10.dtd">
<svg version="1.0" xmlns="http://www.w3.org/2000/svg"
 width="233.000000pt" height="233.000000pt" viewBox="0 0 233.000000 233.000000"
 preserveAspectRatio="xMidYMid meet">

<g transform="translate(0.000000,233.000000) scale(0.100000,-0.100000)"
fill="#000000" stroke="none">
<path d="M530 2182 c0 -69 -25 -161 -46 -169 -9 -3 -14 -21 -14 -54 0 -42 3
-49 20 -49 16 0 20 7 20 30 l0 30 75 0 75 0 0 -30 c0 -23 4 -30 20 -30 17 0
20 7 20 50 0 28 -4 50 -10 50 -6 0 -10 45 -10 115 l0 115 -75 0 -75 0 0 -58z
m110 -72 l0 -100 -46 0 c-43 0 -46 1 -39 23 3 12 9 57 12 100 l6 77 33 0 34 0
0 -100z"/>
<path d="M755 2145 c-20 -19 -25 -34 -25 -73 0 -63 31 -97 92 -97 55 0 88 38
88 101 0 61 -32 94 -90 94 -30 0 -47 -6 -65 -25z m82 -13 c6 -4 17 -20 22 -36
24 -62 -40 -115 -74 -62 -32 49 9 126 52 98z"/>
<path d="M1020 2115 c0 -47 3 -57 25 -71 16 -11 34 -14 55 -9 29 6 30 5 30
-29 0 -29 4 -36 20 -36 19 0 20 7 20 100 0 92 -1 100 -19 100 -17 0 -20 -8
-23 -47 -3 -42 -6 -48 -27 -51 -29 -5 -41 12 -41 61 0 30 -4 37 -20 37 -18 0
-20 -7 -20 -55z"/>
<path d="M1226 2139 c-49 -58 -25 -149 44 -164 44 -10 90 3 90 25 0 15 -6 17
-40 13 -41 -6 -70 8 -70 33 0 10 16 14 60 14 l60 0 0 33 c0 75 -94 105 -144
46z m88 -15 c25 -25 19 -34 -24 -34 -41 0 -52 14 -28 38 16 16 33 15 52 -4z"/>
<path d="M1398 2034 c3 -125 4 -134 23 -134 16 0 19 7 19 45 0 43 1 45 21 35
29 -16 75 -3 99 27 29 37 27 107 -4 138 -21 21 -33 24 -93 23 l-68 0 3 -134z
m109 98 c43 -27 31 -114 -17 -120 -47 -7 -69 69 -30 108 22 22 29 24 47 12z"/>
<path d="M1620 2070 c0 -93 1 -100 20 -100 18 0 20 7 20 85 l0 85 40 0 c29 0
40 4 40 15 0 12 -13 15 -60 15 l-60 0 0 -100z"/>
<path d="M1760 2070 c0 -97 1 -100 23 -100 18 0 31 15 60 68 l37 67 0 -67 c0
-61 2 -68 20 -68 19 0 20 7 20 100 0 99 0 100 -24 100 -20 0 -32 -13 -60 -62
l-36 -63 0 63 c0 55 -2 62 -20 62 -19 0 -20 -7 -20 -100z"/>
<path d="M1192 1687 l-82 -82 11 -230 c6 -127 14 -239 19 -251 9 -23 27 -25
363 -41 l138 -6 80 79 c84 83 100 119 57 128 -22 5 -82 9 -313 22 -60 3 -113
9 -116 13 -4 3 -11 99 -16 214 -10 203 -17 237 -47 237 -6 0 -48 -37 -94 -83z"/>
<path d="M883 1377 l-85 -84 12 -241 c8 -148 17 -246 24 -251 12 -9 106 -17
311 -26 72 -4 140 -8 153 -11 19 -4 40 11 103 72 133 130 128 139 -99 150 -92
4 -180 8 -197 10 -16 1 -39 2 -51 3 -20 1 -22 8 -28 134 -13 277 -17 307 -38
318 -17 9 -31 -1 -105 -74z"/>
<path d="M840 275 l0 -135 85 0 85 0 0 -30 c0 -23 4 -30 20 -30 17 0 20 7 20
50 0 28 -4 50 -10 50 -6 0 -10 45 -10 115 0 108 -1 115 -20 115 -19 0 -20 -7
-20 -115 l0 -115 -55 0 -55 0 0 115 c0 108 -1 115 -20 115 -19 0 -20 -7 -20
-135z"/>
<path d="M1080 275 c0 -128 1 -135 20 -135 18 0 20 7 20 60 l0 60 55 0 55 0 0
-60 c0 -53 2 -60 20 -60 19 0 20 7 20 135 0 128 -1 135 -20 135 -18 0 -20 -7
-20 -55 l0 -55 -55 0 -55 0 0 55 c0 48 -2 55 -20 55 -19 0 -20 -7 -20 -135z"/>
<path d="M1352 282 c-23 -70 -42 -131 -42 -135 0 -4 9 -7 21 -7 15 0 25 11 36
40 15 37 19 40 53 40 34 0 38 -3 53 -40 11 -29 21 -40 36 -40 12 0 21 6 21 12
0 7 -18 68 -41 135 -39 117 -42 123 -68 123 -25 0 -29 -6 -69 -128z m85 13
c11 -34 11 -35 -17 -35 -28 0 -28 1 -17 35 6 19 13 35 17 35 4 0 11 -16 17
-35z"/>
<path d="M1560 275 c0 -128 1 -135 20 -135 19 0 20 7 20 121 l0 120 53 -3 52
-3 3 -117 c2 -110 4 -118 22 -118 19 0 20 7 20 135 l0 135 -95 0 -95 0 0 -135z"/>
<path d="M550 335 c0 -3 16 -44 35 -91 l34 -86 -29 -30 c-34 -33 -39 -58 -12
-58 31 0 71 53 106 141 52 129 52 129 22 129 -22 0 -27 -8 -42 -55 -10 -30
-21 -52 -25 -48 -3 5 -14 29 -24 56 -14 38 -22 47 -41 47 -13 0 -24 -2 -24 -5z"/>
</g>
</svg>
