<?xml version="1.0" standalone="no"?>
<!DOCTYPE svg PUBLIC "-//W3C//DTD SVG 20010904//EN"
 "http://www.w3.org/TR/2001/REC-SVG-20010904/DTD/svg10.dtd">
<svg version="1.0" xmlns="http://www.w3.org/2000/svg"
 width="233.000000pt" height="233.000000pt" viewBox="0 0 233.000000 233.000000"
 preserveAspectRatio="xMidYMid meet">

<g transform="translate(0.000000,233.000000) scale(0.100000,-0.100000)"
fill="#000000" stroke="none">
<path d="M760 2173 c0 -38 4 -73 8 -79 15 -23 54 -36 88 -29 l34 6 0 -51 c0
-43 3 -50 20 -50 19 0 20 7 20 135 0 128 -1 135 -20 135 -18 0 -20 -7 -20 -64
0 -49 -4 -65 -16 -70 -49 -19 -74 8 -74 80 0 47 -2 54 -20 54 -18 0 -20 -7
-20 -67z"/>
<path d="M996 2139 c-49 -58 -25 -149 44 -164 44 -10 90 3 90 25 0 15 -6 17
-40 13 -41 -6 -70 8 -70 33 0 10 16 14 60 14 l60 0 0 33 c0 75 -94 105 -144
46z m88 -15 c25 -25 19 -34 -24 -34 -41 0 -52 14 -28 38 16 16 33 15 52 -4z"/>
<path d="M1168 2034 c3 -125 4 -134 23 -134 16 0 19 7 19 45 0 43 1 45 21 35
29 -16 75 -3 99 27 29 37 27 107 -4 138 -21 21 -33 24 -93 23 l-68 0 3 -134z
m109 98 c43 -27 31 -114 -17 -120 -47 -7 -69 69 -30 108 22 22 29 24 47 12z"/>
<path d="M1390 2070 c0 -93 1 -100 20 -100 18 0 20 7 20 85 l0 85 40 0 c29 0
40 4 40 15 0 12 -13 15 -60 15 l-60 0 0 -100z"/>
<path d="M1531 2161 c-8 -5 -11 -16 -8 -25 5 -13 12 -14 32 -6 33 13 31 13 49
-6 25 -24 19 -34 -19 -34 -42 0 -75 -29 -75 -65 0 -35 35 -53 99 -51 l54 1 -2
80 c-3 96 -15 115 -75 115 -23 0 -47 -4 -55 -9z m89 -114 c0 -19 -21 -37 -42
-37 -18 0 -25 29 -11 43 12 12 53 7 53 -6z"/>
<path d="M734 1676 c-87 -38 -105 -153 -40 -248 25 -38 25 -75 0 -113 -10 -14
-14 -61 -14 -181 0 -146 2 -164 20 -187 18 -22 20 -40 20 -166 l0 -141 120 0
c130 0 133 1 108 56 -7 15 -26 32 -41 39 -29 12 -29 13 -29 96 1 51 7 101 17
129 9 25 19 84 22 133 5 76 4 87 -11 87 -12 0 -16 -9 -16 -35 0 -35 0 -35 -45
-35 l-45 0 0 99 c0 103 -10 131 -46 131 -9 0 -14 7 -12 17 2 14 14 17 58 17
53 0 56 -1 72 -34 10 -19 18 -52 18 -72 0 -27 4 -38 15 -38 22 0 19 77 -4 124
l-20 37 25 36 c16 24 24 50 24 79 0 24 5 54 11 68 33 72 -112 143 -207 102z
m119 -30 c18 -7 40 -23 51 -34 24 -27 15 -31 -84 -34 l-75 -3 -20 -37 c-11
-21 -23 -38 -27 -38 -5 0 -8 20 -8 44 0 89 78 138 163 102z m47 -139 c0 -94
-107 -139 -170 -71 l-23 24 20 23 c11 12 24 32 28 45 6 20 12 22 76 22 l69 0
0 -43z m-132 -249 c3 -47 3 -48 -27 -48 -29 0 -31 3 -31 34 0 50 9 68 34 64
17 -2 22 -11 24 -50z m0 -185 c-3 -108 -3 -108 -28 -108 -25 0 -25 1 -28 94
-1 52 -1 100 2 108 3 7 17 13 31 13 l26 0 -3 -107z m114 -32 c-2 -18 -10 -52
-18 -74 -8 -22 -14 -77 -14 -128 l0 -89 -50 0 -50 0 0 84 c0 78 2 85 25 100
22 14 25 24 25 75 0 32 3 61 7 65 4 4 23 6 43 4 33 -3 35 -5 32 -37z m2 -331
c14 -5 30 -18 36 -30 10 -19 8 -20 -80 -20 -88 0 -90 1 -90 23 0 13 3 27 7 30
10 10 98 8 127 -3z"/>
<path d="M1080 1672 c-46 -23 -74 -73 -73 -132 1 -45 31 -121 53 -135 13 -8 3
-61 -16 -90 -11 -14 -14 -60 -14 -181 0 -146 2 -164 20 -187 18 -22 20 -40 20
-166 l0 -141 120 0 c130 0 133 1 108 56 -7 15 -26 32 -42 39 l-29 12 2 87 c1
50 9 105 18 129 11 29 17 90 20 197 4 141 3 158 -16 194 l-20 38 26 34 c18 25
26 48 28 86 1 29 5 61 10 71 18 42 -69 106 -145 107 -19 0 -51 -8 -70 -18z
m123 -26 c18 -7 40 -23 51 -34 24 -27 15 -31 -84 -34 -72 -3 -76 -4 -90 -33
-30 -59 -33 -62 -42 -30 -25 96 70 172 165 131z m47 -139 c0 -93 -107 -139
-169 -73 l-22 23 25 38 c14 21 26 42 26 46 0 5 32 9 70 9 l70 0 0 -43z m-28
-168 c14 -25 18 -59 18 -131 l0 -98 -45 0 -45 0 0 99 c0 102 -10 131 -46 131
-13 0 -20 21 -10 31 3 2 28 4 58 4 50 -1 54 -3 70 -36z m-104 -81 c3 -47 3
-48 -27 -48 -29 0 -31 3 -31 34 0 50 9 68 34 64 17 -2 22 -11 24 -50z m0 -185
c-3 -96 -5 -108 -22 -111 -10 -2 -22 2 -27 10 -10 15 -12 192 -2 201 3 4 17 7
30 7 24 0 24 0 21 -107z m114 -28 c-2 -16 -12 -60 -23 -97 -14 -47 -20 -88
-17 -133 l3 -65 -47 0 -48 0 0 84 c0 78 2 85 25 100 22 14 25 24 25 75 0 32 3
61 7 65 4 4 23 6 43 4 32 -3 35 -5 32 -33z m30 -352 c10 -9 18 -20 18 -25 0
-4 -40 -8 -90 -8 -89 0 -90 0 -90 25 0 24 2 25 72 25 52 0 76 -4 90 -17z"/>
<path d="M1453 1675 c-34 -15 -68 -61 -78 -106 -8 -36 9 -97 39 -141 25 -38
25 -75 0 -113 -10 -14 -14 -61 -14 -181 0 -146 2 -164 20 -187 18 -22 20 -40
20 -166 l0 -141 120 0 c102 0 120 2 120 15 0 30 -30 73 -57 83 l-28 9 6 94 c3
52 13 122 23 156 19 70 18 174 -1 181 -9 2 -13 -8 -13 -32 0 -36 0 -36 -45
-36 l-45 0 0 99 c0 103 -10 131 -46 131 -9 0 -14 7 -12 17 2 14 14 17 58 17
53 0 56 -1 72 -34 10 -19 18 -54 18 -78 0 -31 4 -42 13 -40 21 8 20 86 -2 131
l-21 41 20 21 c25 26 42 83 34 108 -3 11 0 30 7 44 19 35 -4 72 -61 101 -50
25 -100 28 -147 7z m120 -29 c18 -7 40 -23 51 -34 24 -27 15 -31 -84 -34 l-75
-3 -18 -37 c-25 -50 -37 -48 -37 6 0 89 78 138 163 102z m48 -118 c3 -60 -13
-92 -58 -113 -42 -20 -82 -13 -113 21 l-23 24 20 23 c11 12 24 32 28 45 6 20
12 22 76 22 65 0 69 -1 70 -22z m-133 -271 c3 -46 3 -47 -27 -47 -29 0 -31 2
-31 38 0 77 53 85 58 9z m2 -187 c0 -109 0 -110 -24 -110 -13 0 -27 7 -30 16
-8 21 -8 189 1 197 3 4 17 7 30 7 23 0 23 -1 23 -110z m112 -28 c-2 -19 -10
-52 -18 -74 -8 -23 -14 -78 -14 -129 l0 -89 -50 0 -50 0 0 84 c0 78 2 85 25
100 22 14 25 24 25 75 0 32 3 61 7 65 4 4 23 6 43 4 33 -3 35 -5 32 -36z m36
-359 l14 -23 -91 0 c-91 0 -91 0 -91 25 0 26 0 26 76 23 67 -3 79 -6 92 -25z"/>
<path d="M790 280 l0 -130 85 0 85 0 0 -30 c0 -23 4 -30 20 -30 17 0 20 7 20
40 0 22 -4 40 -10 40 -6 0 -10 47 -10 120 0 113 -1 120 -20 120 -19 0 -20 -7
-20 -115 l0 -115 -55 0 -55 0 0 115 c0 108 -1 115 -20 115 -19 0 -20 -7 -20
-130z"/>
<path d="M1040 280 c0 -123 1 -130 20 -130 18 0 20 7 20 60 l0 60 55 0 55 0 0
-60 c0 -53 2 -60 20 -60 19 0 20 7 20 130 0 123 -1 130 -20 130 -18 0 -20 -7
-20 -55 l0 -55 -55 0 -55 0 0 55 c0 48 -2 55 -20 55 -19 0 -20 -7 -20 -130z"/>
<path d="M1303 280 c-40 -128 -40 -130 -18 -130 17 0 25 9 34 40 11 38 14 40
51 40 37 0 40 -2 51 -40 10 -33 17 -40 37 -40 15 0 22 5 19 13 -2 6 -22 65
-43 130 -36 109 -40 117 -64 117 -24 0 -28 -7 -67 -130z m85 21 c16 -52 16
-51 -19 -51 -24 0 -29 4 -25 18 3 9 8 29 12 45 9 37 19 34 32 -12z"/>
<path d="M1510 280 c0 -123 1 -130 20 -130 19 0 20 7 20 115 l0 115 55 0 55 0
0 -115 c0 -108 1 -115 20 -115 19 0 20 7 20 130 l0 130 -95 0 -95 0 0 -130z"/>
<path d="M1747 404 c-16 -16 -6 -34 19 -34 19 0 25 5 22 17 -3 19 -29 29 -41
17z"/>
<path d="M510 337 c0 -2 16 -43 35 -91 38 -94 38 -97 -10 -138 -16 -13 -17
-19 -8 -29 18 -18 58 12 83 61 17 34 80 189 80 197 0 2 -11 3 -23 3 -20 0 -27
-9 -42 -60 -10 -33 -21 -57 -25 -53 -4 4 -15 32 -26 61 -15 42 -22 52 -41 52
-13 0 -23 -1 -23 -3z"/>
<path d="M1750 245 c0 -88 1 -95 20 -95 19 0 20 7 20 95 0 88 -1 95 -20 95
-19 0 -20 -7 -20 -95z"/>
</g>
</svg>
