<?xml version="1.0" standalone="no"?>
<!DOCTYPE svg PUBLIC "-//W3C//DTD SVG 20010904//EN"
 "http://www.w3.org/TR/2001/REC-SVG-20010904/DTD/svg10.dtd">
<svg version="1.0" xmlns="http://www.w3.org/2000/svg"
 width="233.000000pt" height="233.000000pt" viewBox="0 0 233.000000 233.000000"
 preserveAspectRatio="xMidYMid meet">

<g transform="translate(0.000000,233.000000) scale(0.100000,-0.100000)"
fill="#000000" stroke="none">
<path d="M265 1877 c-3 -7 -4 -145 -3 -307 l3 -295 37 -9 38 -9 2 -406 3 -406
75 0 75 0 3 398 2 399 48 -6 c276 -36 958 -36 1235 0 l47 6 0 -130 c0 -131 4
-146 38 -135 9 4 12 40 12 139 l0 134 28 0 27 0 -2 -377 -3 -378 -25 -3 -25
-3 0 219 c0 196 -2 221 -17 226 -9 4 -20 3 -25 -2 -5 -5 -7 -116 -6 -248 l3
-239 75 0 75 0 3 406 2 406 38 9 37 9 3 303 c2 256 0 303 -12 308 -8 3 -99 -4
-203 -15 -364 -41 -692 -50 -1024 -30 -290 18 -314 18 -314 -6 0 -25 25 -30
268 -45 262 -18 762 -8 1012 19 105 12 198 21 208 21 16 0 17 -19 17 -254 0
-234 -1 -255 -17 -260 -10 -3 -112 -15 -228 -28 -181 -19 -264 -22 -610 -22
-346 0 -429 3 -610 22 -116 13 -218 25 -227 28 -17 5 -18 26 -18 261 l0 255
74 -7 c64 -6 74 -4 80 11 10 26 -4 34 -75 44 -87 13 -119 12 -124 -3z m185
-1008 l0 -380 -25 3 -25 3 -3 378 -2 377 28 0 27 0 0 -381z"/>
<path d="M1650 1689 c-92 -12 -110 -17 -110 -34 0 -19 19 -30 55 -30 l30 0 5
-110 c5 -102 7 -110 25 -110 19 0 20 8 23 118 l3 117 27 0 c36 0 55 13 50 36
-4 23 -21 25 -108 13z"/>
<path d="M592 1667 c-34 -36 -30 -89 9 -121 17 -14 39 -26 49 -26 23 0 44 -26
36 -45 -4 -11 -21 -15 -61 -15 -53 0 -56 -1 -53 -22 6 -43 124 -47 153 -5 37
53 6 118 -66 141 -23 8 -35 18 -37 34 -4 23 -3 24 68 26 34 1 45 5 48 18 8 41
-111 53 -146 15z"/>
<path d="M794 1656 c-9 -23 4 -34 46 -38 l35 -3 5 -115 c5 -107 6 -115 25
-115 19 0 20 8 23 113 l3 112 33 0 c37 0 59 18 47 39 -6 8 -42 15 -109 18 -90
5 -102 4 -108 -11z"/>
<path d="M1100 1647 c-39 -20 -50 -53 -50 -158 0 -74 4 -99 15 -109 25 -20 45
5 45 56 0 44 0 44 35 44 l35 0 0 -49 c0 -52 8 -65 34 -55 13 5 16 25 16 116 0
108 0 110 -29 139 -32 31 -61 36 -101 16z m76 -71 c8 -34 -2 -46 -37 -46 -25
0 -29 4 -29 28 0 35 6 42 36 42 17 0 25 -7 30 -24z"/>
<path d="M1307 1653 c-4 -3 -7 -67 -7 -140 0 -134 0 -134 23 -131 19 3 22 10
25 51 2 33 7 47 18 47 20 0 54 -37 54 -59 0 -28 26 -47 45 -31 20 17 19 39 -5
78 l-20 33 21 29 c26 35 20 91 -14 115 -22 15 -127 22 -140 8z m108 -78 c0
-27 -4 -30 -32 -33 -32 -3 -33 -2 -33 33 0 35 1 36 33 33 28 -3 32 -6 32 -33z"/>
<path d="M1165 920 c-271 -125 -330 -158 -314 -174 15 -15 613 -285 620 -280
20 12 5 40 -79 152 -49 64 -92 123 -96 130 -5 8 26 58 88 141 89 119 107 153
89 164 -5 3 -143 -57 -308 -133z"/>
</g>
</svg>
